<mxfile host="65bd71144e">
    <diagram name="Page-1" id="jVy5ansgh5haitN2zPb1">
        <mxGraphModel dx="746" dy="563" grid="1" gridSize="10" guides="1" tooltips="1" connect="1" arrows="1" fold="1" page="1" pageScale="1" pageWidth="827" pageHeight="1169" math="0" shadow="0">
            <root>
                <mxCell id="0"/>
                <mxCell id="1" parent="0"/>
                <mxCell id="3hlQd6VnyrCngBvV6r2V-1" value="&lt;font style=&quot;font-size: 15px;&quot;&gt;&lt;b style=&quot;&quot;&gt;req &lt;/b&gt;Carpooling&lt;/font&gt;" style="shape=umlFrame;whiteSpace=wrap;html=1;pointerEvents=0;recursiveResize=0;container=1;collapsible=0;width=160;" parent="1" vertex="1">
                    <mxGeometry x="40" y="20" width="1020" height="420" as="geometry"/>
                </mxCell>
                <mxCell id="3hlQd6VnyrCngBvV6r2V-31" value="" style="fontStyle=1;align=center;verticalAlign=middle;childLayout=stackLayout;horizontal=1;horizontalStack=0;resizeParent=1;resizeParentMax=0;resizeLast=0;marginBottom=0;" parent="3hlQd6VnyrCngBvV6r2V-1" vertex="1">
                    <mxGeometry x="404" y="230" width="200" height="136" as="geometry"/>
                </mxCell>
                <mxCell id="3hlQd6VnyrCngBvV6r2V-32" value="&amp;lt;&amp;lt;requirement&amp;gt;&amp;gt;" style="html=1;align=center;spacing=0;verticalAlign=middle;strokeColor=none;fillColor=none;whiteSpace=wrap;spacingTop=3;" parent="3hlQd6VnyrCngBvV6r2V-31" vertex="1">
                    <mxGeometry width="200" height="16" as="geometry"/>
                </mxCell>
                <mxCell id="3hlQd6VnyrCngBvV6r2V-33" value="Address Retrieval" style="html=1;align=center;spacing=0;verticalAlign=middle;strokeColor=none;fillColor=none;whiteSpace=wrap;fontStyle=1" parent="3hlQd6VnyrCngBvV6r2V-31" vertex="1">
                    <mxGeometry y="16" width="200" height="18" as="geometry"/>
                </mxCell>
                <mxCell id="3hlQd6VnyrCngBvV6r2V-34" value="" style="line;strokeWidth=0.25;fillColor=none;align=left;verticalAlign=middle;spacingTop=-1;spacingLeft=3;spacingRight=3;rotatable=0;labelPosition=right;points=[];portConstraint=eastwest;" parent="3hlQd6VnyrCngBvV6r2V-31" vertex="1">
                    <mxGeometry y="34" width="200" height="8" as="geometry"/>
                </mxCell>
                <mxCell id="3hlQd6VnyrCngBvV6r2V-35" value="Id=&quot;&lt;span style=&quot;background-color: transparent;&quot;&gt;REQ-3.2&lt;/span&gt;&quot;" style="html=1;align=left;spacing=0;verticalAlign=middle;strokeColor=none;fillColor=none;whiteSpace=wrap;spacingLeft=10;" parent="3hlQd6VnyrCngBvV6r2V-31" vertex="1">
                    <mxGeometry y="42" width="200" height="16" as="geometry"/>
                </mxCell>
                <mxCell id="3hlQd6VnyrCngBvV6r2V-36" value="text=&quot;The system shall retrieve addresses of invited users from the database&quot;" style="html=1;align=left;spacing=0;verticalAlign=middle;strokeColor=none;fillColor=none;whiteSpace=wrap;spacingLeft=10;" parent="3hlQd6VnyrCngBvV6r2V-31" vertex="1">
                    <mxGeometry y="58" width="200" height="52" as="geometry"/>
                </mxCell>
                <mxCell id="3hlQd6VnyrCngBvV6r2V-37" value="" style="html=1;align=center;spacing=0;verticalAlign=middle;strokeColor=none;fillColor=none;whiteSpace=wrap;" parent="3hlQd6VnyrCngBvV6r2V-31" vertex="1">
                    <mxGeometry y="110" width="200" height="26" as="geometry"/>
                </mxCell>
                <mxCell id="3hlQd6VnyrCngBvV6r2V-39" value="" style="fontStyle=1;align=center;verticalAlign=middle;childLayout=stackLayout;horizontal=1;horizontalStack=0;resizeParent=1;resizeParentMax=0;resizeLast=0;marginBottom=0;" parent="3hlQd6VnyrCngBvV6r2V-1" vertex="1">
                    <mxGeometry x="630" y="230" width="200" height="136" as="geometry"/>
                </mxCell>
                <mxCell id="3hlQd6VnyrCngBvV6r2V-40" value="&amp;lt;&amp;lt;requirement&amp;gt;&amp;gt;" style="html=1;align=center;spacing=0;verticalAlign=middle;strokeColor=none;fillColor=none;whiteSpace=wrap;spacingTop=3;" parent="3hlQd6VnyrCngBvV6r2V-39" vertex="1">
                    <mxGeometry width="200" height="16" as="geometry"/>
                </mxCell>
                <mxCell id="3hlQd6VnyrCngBvV6r2V-41" value="Route Adjustment" style="html=1;align=center;spacing=0;verticalAlign=middle;strokeColor=none;fillColor=none;whiteSpace=wrap;fontStyle=1" parent="3hlQd6VnyrCngBvV6r2V-39" vertex="1">
                    <mxGeometry y="16" width="200" height="18" as="geometry"/>
                </mxCell>
                <mxCell id="3hlQd6VnyrCngBvV6r2V-42" value="" style="line;strokeWidth=0.25;fillColor=none;align=left;verticalAlign=middle;spacingTop=-1;spacingLeft=3;spacingRight=3;rotatable=0;labelPosition=right;points=[];portConstraint=eastwest;" parent="3hlQd6VnyrCngBvV6r2V-39" vertex="1">
                    <mxGeometry y="34" width="200" height="8" as="geometry"/>
                </mxCell>
                <mxCell id="3hlQd6VnyrCngBvV6r2V-43" value="Id=&quot;&lt;span style=&quot;background-color: transparent;&quot;&gt;REQ-3.3&lt;/span&gt;&quot;" style="html=1;align=left;spacing=0;verticalAlign=middle;strokeColor=none;fillColor=none;whiteSpace=wrap;spacingLeft=10;" parent="3hlQd6VnyrCngBvV6r2V-39" vertex="1">
                    <mxGeometry y="42" width="200" height="16" as="geometry"/>
                </mxCell>
                <mxCell id="3hlQd6VnyrCngBvV6r2V-44" value="text=&quot;The system shall adjust the userâ€™s route based on co-rider addresses&quot;" style="html=1;align=left;spacing=0;verticalAlign=middle;strokeColor=none;fillColor=none;whiteSpace=wrap;spacingLeft=10;" parent="3hlQd6VnyrCngBvV6r2V-39" vertex="1">
                    <mxGeometry y="58" width="200" height="52" as="geometry"/>
                </mxCell>
                <mxCell id="3hlQd6VnyrCngBvV6r2V-45" value="" style="html=1;align=center;spacing=0;verticalAlign=middle;strokeColor=none;fillColor=none;whiteSpace=wrap;" parent="3hlQd6VnyrCngBvV6r2V-39" vertex="1">
                    <mxGeometry y="110" width="200" height="26" as="geometry"/>
                </mxCell>
                <mxCell id="3hlQd6VnyrCngBvV6r2V-16" value="" style="fontStyle=1;align=center;verticalAlign=middle;childLayout=stackLayout;horizontal=1;horizontalStack=0;resizeParent=1;resizeParentMax=0;resizeLast=0;marginBottom=0;" parent="1" vertex="1">
                    <mxGeometry x="444" y="70" width="200" height="116" as="geometry"/>
                </mxCell>
                <mxCell id="3hlQd6VnyrCngBvV6r2V-17" value="&amp;lt;&amp;lt;requirement&amp;gt;&amp;gt;" style="html=1;align=center;spacing=0;verticalAlign=middle;strokeColor=none;fillColor=none;whiteSpace=wrap;spacingTop=3;" parent="3hlQd6VnyrCngBvV6r2V-16" vertex="1">
                    <mxGeometry width="200" height="16" as="geometry"/>
                </mxCell>
                <mxCell id="3hlQd6VnyrCngBvV6r2V-18" value="&lt;b&gt;Carpooling Support&lt;/b&gt;" style="html=1;align=center;spacing=0;verticalAlign=middle;strokeColor=none;fillColor=none;whiteSpace=wrap;fontStyle=1" parent="3hlQd6VnyrCngBvV6r2V-16" vertex="1">
                    <mxGeometry y="16" width="200" height="18" as="geometry"/>
                </mxCell>
                <mxCell id="3hlQd6VnyrCngBvV6r2V-19" value="" style="line;strokeWidth=0.25;fillColor=none;align=left;verticalAlign=middle;spacingTop=-1;spacingLeft=3;spacingRight=3;rotatable=0;labelPosition=right;points=[];portConstraint=eastwest;" parent="3hlQd6VnyrCngBvV6r2V-16" vertex="1">
                    <mxGeometry y="34" width="200" height="8" as="geometry"/>
                </mxCell>
                <mxCell id="3hlQd6VnyrCngBvV6r2V-21" value="Id=&quot;&lt;span style=&quot;background-color: transparent;&quot;&gt;REQ-3.0&lt;/span&gt;&quot;" style="html=1;align=left;spacing=0;verticalAlign=middle;strokeColor=none;fillColor=none;whiteSpace=wrap;spacingLeft=10;" parent="3hlQd6VnyrCngBvV6r2V-16" vertex="1">
                    <mxGeometry y="42" width="200" height="16" as="geometry"/>
                </mxCell>
                <mxCell id="3hlQd6VnyrCngBvV6r2V-20" value="text=&quot;The system shall support the Carpooling feature&quot;" style="html=1;align=left;spacing=0;verticalAlign=middle;strokeColor=none;fillColor=none;whiteSpace=wrap;spacingLeft=10;" parent="3hlQd6VnyrCngBvV6r2V-16" vertex="1">
                    <mxGeometry y="58" width="200" height="32" as="geometry"/>
                </mxCell>
                <mxCell id="3hlQd6VnyrCngBvV6r2V-22" value="" style="html=1;align=center;spacing=0;verticalAlign=middle;strokeColor=none;fillColor=none;whiteSpace=wrap;" parent="3hlQd6VnyrCngBvV6r2V-16" vertex="1">
                    <mxGeometry y="90" width="200" height="26" as="geometry"/>
                </mxCell>
                <mxCell id="3hlQd6VnyrCngBvV6r2V-24" value="" style="fontStyle=1;align=center;verticalAlign=middle;childLayout=stackLayout;horizontal=1;horizontalStack=0;resizeParent=1;resizeParentMax=0;resizeLast=0;marginBottom=0;" parent="1" vertex="1">
                    <mxGeometry x="220" y="250" width="200" height="136" as="geometry"/>
                </mxCell>
                <mxCell id="3hlQd6VnyrCngBvV6r2V-25" value="&amp;lt;&amp;lt;requirement&amp;gt;&amp;gt;" style="html=1;align=center;spacing=0;verticalAlign=middle;strokeColor=none;fillColor=none;whiteSpace=wrap;spacingTop=3;" parent="3hlQd6VnyrCngBvV6r2V-24" vertex="1">
                    <mxGeometry width="200" height="16" as="geometry"/>
                </mxCell>
                <mxCell id="3hlQd6VnyrCngBvV6r2V-26" value="User Invitation" style="html=1;align=center;spacing=0;verticalAlign=middle;strokeColor=none;fillColor=none;whiteSpace=wrap;fontStyle=1" parent="3hlQd6VnyrCngBvV6r2V-24" vertex="1">
                    <mxGeometry y="16" width="200" height="18" as="geometry"/>
                </mxCell>
                <mxCell id="3hlQd6VnyrCngBvV6r2V-27" value="" style="line;strokeWidth=0.25;fillColor=none;align=left;verticalAlign=middle;spacingTop=-1;spacingLeft=3;spacingRight=3;rotatable=0;labelPosition=right;points=[];portConstraint=eastwest;" parent="3hlQd6VnyrCngBvV6r2V-24" vertex="1">
                    <mxGeometry y="34" width="200" height="8" as="geometry"/>
                </mxCell>
                <mxCell id="3hlQd6VnyrCngBvV6r2V-28" value="Id=&quot;&lt;span style=&quot;background-color: transparent;&quot;&gt;REQ-3.1&lt;/span&gt;&quot;" style="html=1;align=left;spacing=0;verticalAlign=middle;strokeColor=none;fillColor=none;whiteSpace=wrap;spacingLeft=10;" parent="3hlQd6VnyrCngBvV6r2V-24" vertex="1">
                    <mxGeometry y="42" width="200" height="16" as="geometry"/>
                </mxCell>
                <mxCell id="3hlQd6VnyrCngBvV6r2V-29" value="text=&quot;The user shall be able to invite other users to a carpool&quot;" style="html=1;align=left;spacing=0;verticalAlign=middle;strokeColor=none;fillColor=none;whiteSpace=wrap;spacingLeft=10;" parent="3hlQd6VnyrCngBvV6r2V-24" vertex="1">
                    <mxGeometry y="58" width="200" height="52" as="geometry"/>
                </mxCell>
                <mxCell id="3hlQd6VnyrCngBvV6r2V-30" value="" style="html=1;align=center;spacing=0;verticalAlign=middle;strokeColor=none;fillColor=none;whiteSpace=wrap;" parent="3hlQd6VnyrCngBvV6r2V-24" vertex="1">
                    <mxGeometry y="110" width="200" height="26" as="geometry"/>
                </mxCell>
                <mxCell id="3hlQd6VnyrCngBvV6r2V-46" style="edgeStyle=orthogonalEdgeStyle;rounded=0;orthogonalLoop=1;jettySize=auto;html=1;exitX=0.5;exitY=1;exitDx=0;exitDy=0;entryX=0.5;entryY=0;entryDx=0;entryDy=0;" parent="1" source="3hlQd6VnyrCngBvV6r2V-22" target="3hlQd6VnyrCngBvV6r2V-25" edge="1">
                    <mxGeometry relative="1" as="geometry"/>
                </mxCell>
                <mxCell id="3hlQd6VnyrCngBvV6r2V-47" style="edgeStyle=orthogonalEdgeStyle;rounded=0;orthogonalLoop=1;jettySize=auto;html=1;exitX=0.5;exitY=1;exitDx=0;exitDy=0;entryX=0.5;entryY=0;entryDx=0;entryDy=0;" parent="1" source="3hlQd6VnyrCngBvV6r2V-22" target="3hlQd6VnyrCngBvV6r2V-32" edge="1">
                    <mxGeometry relative="1" as="geometry"/>
                </mxCell>
                <mxCell id="3hlQd6VnyrCngBvV6r2V-48" style="edgeStyle=orthogonalEdgeStyle;rounded=0;orthogonalLoop=1;jettySize=auto;html=1;exitX=0.5;exitY=1;exitDx=0;exitDy=0;entryX=0.5;entryY=0;entryDx=0;entryDy=0;startArrow=circlePlus;startFill=0;" parent="1" source="3hlQd6VnyrCngBvV6r2V-22" target="3hlQd6VnyrCngBvV6r2V-40" edge="1">
                    <mxGeometry relative="1" as="geometry"/>
                </mxCell>
                <mxCell id="3hlQd6VnyrCngBvV6r2V-56" value="" style="fontStyle=1;align=center;verticalAlign=middle;childLayout=stackLayout;horizontal=1;horizontalStack=0;resizeParent=1;resizeParentMax=0;resizeLast=0;marginBottom=0;" parent="1" vertex="1">
                    <mxGeometry x="760" y="60" width="200" height="126" as="geometry"/>
                </mxCell>
                <mxCell id="3hlQd6VnyrCngBvV6r2V-57" value="&amp;lt;&amp;lt;NF requirement&amp;gt;&amp;gt;" style="html=1;align=center;spacing=0;verticalAlign=middle;strokeColor=none;fillColor=none;whiteSpace=wrap;spacingTop=3;" parent="3hlQd6VnyrCngBvV6r2V-56" vertex="1">
                    <mxGeometry width="200" height="16" as="geometry"/>
                </mxCell>
                <mxCell id="3hlQd6VnyrCngBvV6r2V-58" value="Performance" style="html=1;align=center;spacing=0;verticalAlign=middle;strokeColor=none;fillColor=none;whiteSpace=wrap;fontStyle=1" parent="3hlQd6VnyrCngBvV6r2V-56" vertex="1">
                    <mxGeometry y="16" width="200" height="18" as="geometry"/>
                </mxCell>
                <mxCell id="3hlQd6VnyrCngBvV6r2V-59" value="" style="line;strokeWidth=0.25;fillColor=none;align=left;verticalAlign=middle;spacingTop=-1;spacingLeft=3;spacingRight=3;rotatable=0;labelPosition=right;points=[];portConstraint=eastwest;" parent="3hlQd6VnyrCngBvV6r2V-56" vertex="1">
                    <mxGeometry y="34" width="200" height="8" as="geometry"/>
                </mxCell>
                <mxCell id="3hlQd6VnyrCngBvV6r2V-60" value="Id=&quot;&lt;span style=&quot;background-color: transparent;&quot;&gt;NFR-3.1&lt;/span&gt;&quot;" style="html=1;align=left;spacing=0;verticalAlign=middle;strokeColor=none;fillColor=none;whiteSpace=wrap;spacingLeft=10;" parent="3hlQd6VnyrCngBvV6r2V-56" vertex="1">
                    <mxGeometry y="42" width="200" height="16" as="geometry"/>
                </mxCell>
                <mxCell id="3hlQd6VnyrCngBvV6r2V-61" value="text=&quot;&lt;span style=&quot;background-color: transparent;&quot;&gt;Route adjustment must complete within a couple of seconds&lt;/span&gt;&lt;span style=&quot;background-color: transparent; color: light-dark(rgb(0, 0, 0), rgb(255, 255, 255));&quot;&gt;&quot;&lt;/span&gt;" style="html=1;align=left;spacing=0;verticalAlign=middle;strokeColor=none;fillColor=none;whiteSpace=wrap;spacingLeft=10;" parent="3hlQd6VnyrCngBvV6r2V-56" vertex="1">
                    <mxGeometry y="58" width="200" height="42" as="geometry"/>
                </mxCell>
                <mxCell id="3hlQd6VnyrCngBvV6r2V-62" value="" style="html=1;align=center;spacing=0;verticalAlign=middle;strokeColor=none;fillColor=none;whiteSpace=wrap;" parent="3hlQd6VnyrCngBvV6r2V-56" vertex="1">
                    <mxGeometry y="100" width="200" height="26" as="geometry"/>
                </mxCell>
                <mxCell id="3hlQd6VnyrCngBvV6r2V-63" value="" style="fontStyle=1;align=center;verticalAlign=middle;childLayout=stackLayout;horizontal=1;horizontalStack=0;resizeParent=1;resizeParentMax=0;resizeLast=0;marginBottom=0;" parent="1" vertex="1">
                    <mxGeometry x="120" y="60" width="200" height="116" as="geometry"/>
                </mxCell>
                <mxCell id="3hlQd6VnyrCngBvV6r2V-64" value="&amp;lt;&amp;lt;NF requirement&amp;gt;&amp;gt;" style="html=1;align=center;spacing=0;verticalAlign=middle;strokeColor=none;fillColor=none;whiteSpace=wrap;spacingTop=3;" parent="3hlQd6VnyrCngBvV6r2V-63" vertex="1">
                    <mxGeometry width="200" height="16" as="geometry"/>
                </mxCell>
                <mxCell id="3hlQd6VnyrCngBvV6r2V-65" value="Privacy" style="html=1;align=center;spacing=0;verticalAlign=middle;strokeColor=none;fillColor=none;whiteSpace=wrap;fontStyle=1" parent="3hlQd6VnyrCngBvV6r2V-63" vertex="1">
                    <mxGeometry y="16" width="200" height="18" as="geometry"/>
                </mxCell>
                <mxCell id="3hlQd6VnyrCngBvV6r2V-66" value="" style="line;strokeWidth=0.25;fillColor=none;align=left;verticalAlign=middle;spacingTop=-1;spacingLeft=3;spacingRight=3;rotatable=0;labelPosition=right;points=[];portConstraint=eastwest;" parent="3hlQd6VnyrCngBvV6r2V-63" vertex="1">
                    <mxGeometry y="34" width="200" height="8" as="geometry"/>
                </mxCell>
                <mxCell id="3hlQd6VnyrCngBvV6r2V-67" value="Id=&quot;&lt;span style=&quot;background-color: transparent;&quot;&gt;NFR-3.2&lt;/span&gt;&quot;" style="html=1;align=left;spacing=0;verticalAlign=middle;strokeColor=none;fillColor=none;whiteSpace=wrap;spacingLeft=10;" parent="3hlQd6VnyrCngBvV6r2V-63" vertex="1">
                    <mxGeometry y="42" width="200" height="16" as="geometry"/>
                </mxCell>
                <mxCell id="3hlQd6VnyrCngBvV6r2V-68" value="text=&quot;&lt;span style=&quot;background-color: transparent;&quot;&gt;Address data must be handled according to GDPR&lt;font color=&quot;rgba(0, 0, 0, 0)&quot;&gt;&quot;&lt;/font&gt;&lt;/span&gt;" style="html=1;align=left;spacing=0;verticalAlign=middle;strokeColor=none;fillColor=none;whiteSpace=wrap;spacingLeft=10;" parent="3hlQd6VnyrCngBvV6r2V-63" vertex="1">
                    <mxGeometry y="58" width="200" height="32" as="geometry"/>
                </mxCell>
                <mxCell id="3hlQd6VnyrCngBvV6r2V-69" value="" style="html=1;align=center;spacing=0;verticalAlign=middle;strokeColor=none;fillColor=none;whiteSpace=wrap;" parent="3hlQd6VnyrCngBvV6r2V-63" vertex="1">
                    <mxGeometry y="90" width="200" height="26" as="geometry"/>
                </mxCell>
                <mxCell id="3hlQd6VnyrCngBvV6r2V-70" style="edgeStyle=orthogonalEdgeStyle;rounded=0;orthogonalLoop=1;jettySize=auto;html=1;entryX=0;entryY=0.25;entryDx=0;entryDy=0;startArrow=circlePlus;startFill=0;" parent="1" source="3hlQd6VnyrCngBvV6r2V-67" target="3hlQd6VnyrCngBvV6r2V-20" edge="1">
                    <mxGeometry relative="1" as="geometry"/>
                </mxCell>
                <mxCell id="3hlQd6VnyrCngBvV6r2V-71" style="edgeStyle=orthogonalEdgeStyle;rounded=0;orthogonalLoop=1;jettySize=auto;html=1;entryX=1;entryY=0.25;entryDx=0;entryDy=0;exitX=0;exitY=0;exitDx=0;exitDy=0;startArrow=circlePlus;startFill=0;" parent="1" source="3hlQd6VnyrCngBvV6r2V-61" target="3hlQd6VnyrCngBvV6r2V-20" edge="1">
                    <mxGeometry relative="1" as="geometry">
                        <Array as="points">
                            <mxPoint x="760" y="110"/>
                            <mxPoint x="707" y="110"/>
                            <mxPoint x="707" y="136"/>
                        </Array>
                    </mxGeometry>
                </mxCell>
            </root>
        </mxGraphModel>
    </diagram>
</mxfile>